<svg xmlns="http://www.w3.org/2000/svg" width="15.82" height="18" viewBox="0 0 15.82 18">
  <g id="_002-user" data-name="002-user" transform="translate(-31)">
    <g id="Group_2" data-name="Group 2" transform="translate(34.164)">
      <g id="Group_1" data-name="Group 1">
        <path id="Path_1" data-name="Path 1" d="M125.746,0a4.746,4.746,0,1,0,4.746,4.746A4.751,4.751,0,0,0,125.746,0Zm0,8.438a3.691,3.691,0,1,1,3.691-3.691A3.7,3.7,0,0,1,125.746,8.438Z" transform="translate(-121)"/>
      </g>
    </g>
    <g id="Group_4" data-name="Group 4" transform="translate(31 10.547)">
      <g id="Group_3" data-name="Group 3">
        <path id="Path_2" data-name="Path 2" d="M44.815,302.046A6.766,6.766,0,0,0,39.965,300H37.855a6.766,6.766,0,0,0-4.85,2.046A6.917,6.917,0,0,0,31,306.926a.527.527,0,0,0,.527.527H46.293a.527.527,0,0,0,.527-.527A6.917,6.917,0,0,0,44.815,302.046ZM32.078,306.4a5.836,5.836,0,0,1,5.778-5.344h2.109a5.836,5.836,0,0,1,5.778,5.344Z" transform="translate(-31 -300)"/>
      </g>
    </g>
  </g>
</svg>
