<svg xmlns="http://www.w3.org/2000/svg" width="20.903" height="18.372" viewBox="0 0 20.903 18.372">
  <g id="shopping-cart3" transform="translate(0 0)">
    <path id="Path_54" data-name="Path 54" d="M6.735,12.248H17.841a.613.613,0,0,0,.589-.444L20.88,3.23a.612.612,0,0,0-.589-.781H5.322L4.885.48a.613.613,0,0,0-.6-.48H.612a.612.612,0,1,0,0,1.225H3.8l2.211,9.95a1.837,1.837,0,0,0,.73,3.523h11.1a.612.612,0,1,0,0-1.225H6.736a.612.612,0,0,1,0-1.225ZM19.479,3.675l-2.1,7.349H7.227L5.594,3.675Zm0,0"/>
    <path id="Path_55" data-name="Path 55" d="M150,361.837A1.837,1.837,0,1,0,151.837,360,1.839,1.839,0,0,0,150,361.837Zm1.837-.612a.612.612,0,1,1-.612.612A.613.613,0,0,1,151.837,361.225Zm0,0" transform="translate(-143.876 -345.302)"/>
    <path id="Path_56" data-name="Path 56" d="M362,361.837A1.837,1.837,0,1,0,363.837,360,1.839,1.839,0,0,0,362,361.837Zm1.837-.612a.612.612,0,1,1-.612.612A.613.613,0,0,1,363.837,361.225Zm0,0" transform="translate(-347.221 -345.302)"/>
  </g>
</svg>
