<svg id="_005-list" data-name="005-list" xmlns="http://www.w3.org/2000/svg" width="17.311" height="18.372" viewBox="0 0 17.311 18.372">
  <g id="Group_197" data-name="Group 197" transform="translate(2.585 7.223)">
    <g id="Group_196" data-name="Group 196">
      <path id="Path_30" data-name="Path 30" d="M93.562,201.284H87.373a.546.546,0,0,0,0,1.092h6.189a.546.546,0,1,0,0-1.092Z" transform="translate(-86.827 -201.284)"/>
    </g>
  </g>
  <g id="Group_199" data-name="Group 199" transform="translate(2.585 13.059)">
    <g id="Group_198" data-name="Group 198">
      <path id="Path_31" data-name="Path 31" d="M90.958,363.933H87.373a.546.546,0,0,0,0,1.092h3.585a.546.546,0,0,0,0-1.092Z" transform="translate(-86.827 -363.933)"/>
    </g>
  </g>
  <g id="Group_201" data-name="Group 201" transform="translate(0)">
    <g id="Group_200" data-name="Group 200">
      <path id="Path_32" data-name="Path 32" d="M31.318,4.24a1.985,1.985,0,0,0-2.781.361L27.231,6.3v-2.5a1.488,1.488,0,0,0-1.486-1.486h-1.48V1.739a.546.546,0,0,0-.546-.546h-.93V.546A.546.546,0,0,0,22.243,0H19.767a.546.546,0,0,0-.546.546v.647h-.93a.546.546,0,0,0-.546.546v.569h-1.48a1.488,1.488,0,0,0-1.486,1.486V16.886a1.488,1.488,0,0,0,1.486,1.486h9.48a1.488,1.488,0,0,0,1.486-1.486V12.8l4.449-5.776A1.985,1.985,0,0,0,31.318,4.24ZM18.837,2.285h.93a.546.546,0,0,0,.546-.546V1.092H21.7v.647a.546.546,0,0,0,.546.546h.93V3.422H18.837Zm7.3,14.6a.394.394,0,0,1-.394.394h-9.48a.394.394,0,0,1-.394-.394V3.793a.394.394,0,0,1,.394-.394h1.48v.568a.546.546,0,0,0,.546.546h5.427a.546.546,0,0,0,.546-.546V3.4h1.48a.394.394,0,0,1,.394.394V7.716l-1.885,2.447a.545.545,0,0,0-.154-.022H17.91a.546.546,0,1,0,0,1.092h5.576a.546.546,0,0,0-.017.156l.09,2.238a.546.546,0,0,0,.664.511l1.915-.424v3.172Zm-.158-4.256-1.355.3-.056-1.387L28.534,6.4l1.408,1.091Zm4.834-6.276-.205.266L29.2,5.53l.2-.262a.891.891,0,0,1,1.411,1.087Z" transform="translate(-14.779 0)"/>
    </g>
  </g>
</svg>
