<svg xmlns="http://www.w3.org/2000/svg" width="31.431" height="42" viewBox="0 0 31.431 42">
  <path id="Union_1" data-name="Union 1" d="M2877.8,10818a6.814,6.814,0,0,1-6.8-6.8v-14.622a2.272,2.272,0,0,1,2.27-2.27h.619v-5.313a1.184,1.184,0,0,1-.011-.16,12.845,12.845,0,0,1,12.831-12.831h.011a12.843,12.843,0,0,1,12.831,12.831,1.23,1.23,0,0,1-.008.139v5.335h.616a2.272,2.272,0,0,1,2.272,2.27v14.622a6.814,6.814,0,0,1-6.8,6.8Zm-4.447-6.8a4.458,4.458,0,0,0,4.455,4.456h17.808a4.458,4.458,0,0,0,4.452-4.456v-14.544h-26.715Zm23.837-16.892v-5.474a10.478,10.478,0,1,0-20.957,0v5.474Zm-10.478,16.414h0a4.393,4.393,0,1,1,0-8.785h.008a4.393,4.393,0,1,1,0,8.785Zm-2.04-4.393a2.04,2.04,0,1,0,2.04-2.053A2.047,2.047,0,0,0,2884.676,10806.326Z" transform="translate(-2871 -10776)" fill="#3c0b8f"/>
</svg>