<svg xmlns="http://www.w3.org/2000/svg" width="44.557" height="42" viewBox="0 0 44.557 42">
  <g id="piggy-bank" transform="translate(0 -13.9)">
    <g id="Group_207" data-name="Group 207" transform="translate(0 13.9)">
      <path id="Path_36" data-name="Path 36" d="M41.375,29.01H40.63a18.2,18.2,0,0,0-5.362-7.422V21.57a4.962,4.962,0,0,1,.8-4.074,2.309,2.309,0,0,0,.064-2.382A2.345,2.345,0,0,0,34.091,13.9c-.1,0-.2.009-.294.018a9.761,9.761,0,0,0-6.631,3.421,23.772,23.772,0,0,0-6.309-.846,22.245,22.245,0,0,0-14.7,5.334A17.248,17.248,0,0,0,0,34.877a16.141,16.141,0,0,0,.451,3.807.171.171,0,0,0,.018.064.3.3,0,0,1,.018.055,17.071,17.071,0,0,0,1.37,3.66,19.006,19.006,0,0,0,3.5,5.306,8.486,8.486,0,0,1,2.262,5.407v.579a.566.566,0,0,0,.009.129,2.233,2.233,0,0,0,2.216,2H16.7a2.233,2.233,0,0,0,2.226-2.226v-.46a25.044,25.044,0,0,0,3.219.046v.423A2.233,2.233,0,0,0,24.37,55.9h6.851a2.233,2.233,0,0,0,2.226-2.226V52a5.687,5.687,0,0,1,1.94-3.89c.083-.074.175-.147.257-.221l.018-.018c.018-.018.046-.037.064-.055a18.186,18.186,0,0,0,5.012-7.311h.644a3.179,3.179,0,0,0,3.173-3.173V32.219A3.2,3.2,0,0,0,41.375,29.01ZM42.34,37.3a.966.966,0,0,1-.966.966H39.94a1.1,1.1,0,0,0-1.058.782,15.878,15.878,0,0,1-4.672,7.127l-.018.018-.009.009-.248.221c-.009.009-.018.018-.028.018a7.882,7.882,0,0,0-2.676,5.5v1.72a.02.02,0,0,1-.018.018H24.361a.02.02,0,0,1-.018-.018V52.047a1.083,1.083,0,0,0-.368-.818,1.1,1.1,0,0,0-.736-.285.565.565,0,0,0-.12.009,20.883,20.883,0,0,1-2.272.12,21.552,21.552,0,0,1-2.888-.193,1.089,1.089,0,0,0-.874.267,1.111,1.111,0,0,0-.377.828v1.683a.02.02,0,0,1-.018.018H9.84a.02.02,0,0,1-.018-.018h0V53.1a10.7,10.7,0,0,0-2.888-6.87,17.024,17.024,0,0,1-3.108-4.709c-.009-.018-.009-.028-.018-.037a14.726,14.726,0,0,1-1.2-3.21c0-.009-.009-.018-.009-.028v-.018A14.081,14.081,0,0,1,2.2,34.9c0-8.921,8.369-16.186,18.65-16.186a21.176,21.176,0,0,1,6.382.975,1.108,1.108,0,0,0,1.251-.432,7.49,7.49,0,0,1,5.573-3.127.133.133,0,0,1,.138.074.116.116,0,0,1-.009.138,7.166,7.166,0,0,0-1.048,5.849c0,.009.009.028.009.037a1.088,1.088,0,0,0,.414.828A16.035,16.035,0,0,1,38.8,30.472a1.107,1.107,0,0,0,1.048.763h1.517a.966.966,0,0,1,.966.966V37.3Z" transform="translate(0 -13.9)" fill="#3c0b8f"/>
      <path id="Path_37" data-name="Path 37" d="M177.963,151.092H175.5a1.6,1.6,0,1,1,0-3.2h4.359a1.1,1.1,0,0,0,0-2.207h-2.014V144.2a1.1,1.1,0,0,0-2.207,0v1.481h-.129a3.807,3.807,0,0,0,0,7.615h2.465a1.6,1.6,0,1,1,0,3.2h-4.433a1.1,1.1,0,0,0,0,2.207h2.1v1.508a1.1,1.1,0,1,0,2.207,0v-1.508h.184a3.807,3.807,0,0,0-.064-7.615Z" transform="translate(-155.91 -131.218)" fill="#3c0b8f"/>
    </g>
  </g>
</svg>