<svg xmlns="http://www.w3.org/2000/svg" width="42" height="31.695" viewBox="0 0 42 31.695">
  <path id="Path_34" data-name="Path 34" d="M3.271,62.811H26.654a3.275,3.275,0,0,1,3.271,3.271V69.03h6.949A5.131,5.131,0,0,1,42,74.156v13.03a2.89,2.89,0,0,1-2.887,2.887h-2.43a5.662,5.662,0,0,1-11.054,0H16.385a5.662,5.662,0,0,1-11.054,0H3.271A3.275,3.275,0,0,1,0,86.8V66.082A3.275,3.275,0,0,1,3.271,62.811Zm33.412,24.8h2.43a.427.427,0,0,0,.427-.427V74.156a2.668,2.668,0,0,0-2.665-2.665H29.925V83.316a5.658,5.658,0,0,1,6.757,4.3Zm-5.527,4.433a3.2,3.2,0,1,0-3.2-3.2A3.206,3.206,0,0,0,31.156,92.045Zm-20.3,0a3.206,3.206,0,0,0,3.2-3.2h0a3.2,3.2,0,1,0-3.2,3.2ZM3.271,87.612H5.331a5.662,5.662,0,0,1,11.054,0h9.244a5.667,5.667,0,0,1,1.836-3.06V66.082a.812.812,0,0,0-.811-.811H3.271a.812.812,0,0,0-.811.811V86.8h0A.812.812,0,0,0,3.271,87.612Z" transform="translate(0 -62.811)" fill="#3c0b8f"/>
</svg>