<svg xmlns="http://www.w3.org/2000/svg" width="42" height="42" viewBox="0 0 42 42">
  <g id="world" transform="translate(0 0)">
    <path id="Path_107" data-name="Path 107" d="M93.209,100.017a1.237,1.237,0,0,0-.075.168,13.445,13.445,0,1,0,24.657,0,1.205,1.205,0,0,0-.072-.162,13.444,13.444,0,0,0-24.51,0Zm15.338-.648h-6.166c.794-3.04,2.084-4.806,3.083-4.806s2.289,1.766,3.083,4.806Zm7.9,6.178a10.937,10.937,0,0,1-.615,3.625h-4.31a30.546,30.546,0,0,0-.012-7.342H115.8a10.935,10.935,0,0,1,.647,3.717Zm-7.17,0a27.236,27.236,0,0,1-.235,3.625h-7.159a28.068,28.068,0,0,1,.012-7.342h7.134A27.114,27.114,0,0,1,109.278,105.547Zm-3.814,10.984c-1.009,0-2.315-1.8-3.107-4.9h6.214C107.778,114.729,106.473,116.53,105.464,116.53ZM94.48,105.547a10.935,10.935,0,0,1,.647-3.717h4.289a30.5,30.5,0,0,0-.012,7.342h-4.31A10.929,10.929,0,0,1,94.48,105.547Zm6.758-10.139q-.252.483-.479,1.032a18.512,18.512,0,0,0-.913,2.928h-3.46A11.051,11.051,0,0,1,101.238,95.408Zm-4.915,16.224h3.5a18.654,18.654,0,0,0,.934,3.021q.226.548.479,1.032a11.051,11.051,0,0,1-4.915-4.053Zm13.366,4.053q.252-.483.479-1.032a18.612,18.612,0,0,0,.934-3.021h3.5a11.05,11.05,0,0,1-4.915,4.053Zm4.852-16.316h-3.46a18.491,18.491,0,0,0-.913-2.928q-.227-.549-.479-1.032a11.047,11.047,0,0,1,4.852,3.961Zm0,0" transform="translate(-84.47 -84.547)" fill="#3c0b8f"/>
    <path id="Path_108" data-name="Path 108" d="M209.221,58.377a1.9,1.9,0,0,0,.072-.519V53.59a1.916,1.916,0,0,0-1.914-1.914H203.11A1.916,1.916,0,0,0,201.2,53.59v4.268a1.916,1.916,0,0,0,1.914,1.914h4.066a18.553,18.553,0,0,1-20.706,26.7,1.23,1.23,0,1,0-.57,2.394,21.076,21.076,0,0,0,4.882.571,21.006,21.006,0,0,0,18.438-31.06Zm-5.563-4.24h3.174v3.174h-3.174Zm0,0" transform="translate(-169.783 -47.437)" fill="#3c0b8f"/>
    <path id="Path_109" data-name="Path 109" d="M9.8,31.156H5.488A18.549,18.549,0,0,1,26.461,3.278,1.231,1.231,0,1,0,27.184.925,21.005,21.005,0,0,0,3.633,32.809a1.9,1.9,0,0,0-.018.261v4.268a1.916,1.916,0,0,0,1.914,1.914H9.8a1.916,1.916,0,0,0,1.914-1.914V33.07A1.916,1.916,0,0,0,9.8,31.156Zm-.547,5.635H6.076V33.618H9.251Zm0,0" fill="#3c0b8f"/>
  </g>
</svg>